<svg width="28" height="28" viewBox="0 0 28 28" fill="none" xmlns="http://www.w3.org/2000/svg">
<rect width="28" height="28" rx="8" fill="white" fill-opacity="0.1"/>
<path d="M11.025 14C11.025 13.8667 11.05 13.7373 11.1 13.612C11.15 13.4867 11.2167 13.3827 11.3 13.3L15.9 8.7C16.0833 8.51667 16.3167 8.425 16.6 8.425C16.8833 8.425 17.1167 8.51667 17.3 8.7C17.4833 8.88334 17.575 9.11667 17.575 9.4C17.575 9.68334 17.4833 9.91667 17.3 10.1L13.4 14L17.3 17.9C17.4833 18.0833 17.575 18.3167 17.575 18.6C17.575 18.8833 17.4833 19.1167 17.3 19.3C17.1167 19.4833 16.8833 19.575 16.6 19.575C16.3167 19.575 16.0833 19.4833 15.9 19.3L11.3 14.7C11.2 14.6 11.129 14.4917 11.087 14.375C11.045 14.2583 11.0243 14.1333 11.025 14Z" fill="white"/>
</svg>
