<svg width="24" height="24" viewBox="0 0 24 24" fill="none" xmlns="http://www.w3.org/2000/svg">
<g clipPath="url(#clip0_365_3046)">
<path d="M11.4094 0.121873L0.909369 4.62187C0.253119 4.90312 -0.112506 5.60625 0.0328064 6.3C0.178119 6.99375 0.787494 7.5 1.49999 7.5V7.875C1.49999 8.49844 2.00156 9 2.62499 9H21.375C21.9984 9 22.5 8.49844 22.5 7.875V7.5C23.2125 7.5 23.8266 6.99844 23.9672 6.3C24.1078 5.60156 23.7422 4.89844 23.0906 4.62187L12.5906 0.121873C12.2109 -0.0375015 11.7844 -0.0375015 11.4094 0.121873ZM5.99999 10.5H2.99999V19.7016C2.97187 19.7156 2.94374 19.7344 2.91562 19.7531L0.665619 21.2531C0.117181 21.6187 -0.131256 22.3031 0.0609314 22.9359C0.253119 23.5688 0.839056 24 1.49999 24H22.5C23.1609 24 23.7422 23.5688 23.9344 22.9359C24.1266 22.3031 23.8828 21.6187 23.3297 21.2531L21.0797 19.7531C21.0516 19.7344 21.0234 19.7203 20.9953 19.7016V10.5H18V19.5H16.125V10.5H13.125V19.5H10.875V10.5H7.87499V19.5H5.99999V10.5ZM12 3C12.3978 3 12.7793 3.15803 13.0607 3.43934C13.342 3.72064 13.5 4.10217 13.5 4.5C13.5 4.89782 13.342 5.27935 13.0607 5.56066C12.7793 5.84196 12.3978 6 12 6C11.6022 6 11.2206 5.84196 10.9393 5.56066C10.658 5.27935 10.5 4.89782 10.5 4.5C10.5 4.10217 10.658 3.72064 10.9393 3.43934C11.2206 3.15803 11.6022 3 12 3Z" fill="white"/>
</g>
<defs>
<clipPath id="clip0_365_3046">
<rect width="24" height="24" fill="white"/>
</clipPath>
</defs>
</svg>
