<svg width="24" height="20" viewBox="0 0 24 20" fill="none" xmlns="http://www.w3.org/2000/svg">
<path d="M2.7 3.3C2.7 2.74304 2.92125 2.2089 3.31508 1.81507C3.7089 1.42125 4.24305 1.2 4.8 1.2C5.35696 1.2 5.8911 1.42125 6.28492 1.81507C6.67875 2.2089 6.9 2.74304 6.9 3.3C6.9 3.85695 6.67875 4.39109 6.28492 4.78492C5.8911 5.17875 5.35696 5.4 4.8 5.4C4.24305 5.4 3.7089 5.17875 3.31508 4.78492C2.92125 4.39109 2.7 3.85695 2.7 3.3ZM2.4 9.21375C2.025 9.63375 1.8 10.1925 1.8 10.8C1.8 11.4075 2.025 11.9662 2.4 12.3862V9.21375ZM7.815 7.365C6.70125 8.35125 6 9.795 6 11.4C6 12.6862 6.45 13.8675 7.2 14.7937V15.6C7.2 16.2637 6.66375 16.8 6 16.8H3.6C2.93625 16.8 2.4 16.2637 2.4 15.6V14.595C0.9825 13.92 0 12.4762 0 10.8C0 8.47875 1.87875 6.6 4.2 6.6H5.4C6.3 6.6 7.1325 6.88125 7.815 7.36125V7.365ZM16.8 15.6V14.7937C17.55 13.8675 18 12.6862 18 11.4C18 9.795 17.2988 8.35125 16.185 7.36125C16.8675 6.88125 17.7 6.6 18.6 6.6H19.8C22.1213 6.6 24 8.47875 24 10.8C24 12.4762 23.0175 13.92 21.6 14.595V15.6C21.6 16.2637 21.0638 16.8 20.4 16.8H18C17.3363 16.8 16.8 16.2637 16.8 15.6ZM17.1 3.3C17.1 2.74304 17.3212 2.2089 17.7151 1.81507C18.1089 1.42125 18.643 1.2 19.2 1.2C19.757 1.2 20.2911 1.42125 20.6849 1.81507C21.0788 2.2089 21.3 2.74304 21.3 3.3C21.3 3.85695 21.0788 4.39109 20.6849 4.78492C20.2911 5.17875 19.757 5.4 19.2 5.4C18.643 5.4 18.1089 5.17875 17.7151 4.78492C17.3212 4.39109 17.1 3.85695 17.1 3.3ZM21.6 9.21375V12.39C21.975 11.9662 22.2 11.4112 22.2 10.8037C22.2 10.1962 21.975 9.6375 21.6 9.2175V9.21375ZM12 1.2C12.6365 1.2 13.247 1.45285 13.6971 1.90294C14.1471 2.35303 14.4 2.96348 14.4 3.6C14.4 4.23652 14.1471 4.84697 13.6971 5.29705C13.247 5.74714 12.6365 6 12 6C11.3635 6 10.753 5.74714 10.3029 5.29705C9.85286 4.84697 9.6 4.23652 9.6 3.6C9.6 2.96348 9.85286 2.35303 10.3029 1.90294C10.753 1.45285 11.3635 1.2 12 1.2ZM9 11.4C9 12.0075 9.225 12.5625 9.6 12.9862V9.81375C9.225 10.2375 9 10.7925 9 11.4ZM14.4 9.81375V12.99C14.775 12.5662 15 12.0112 15 11.4037C15 10.7962 14.775 10.2375 14.4 9.8175V9.81375ZM16.8 11.4C16.8 13.0762 15.8175 14.52 14.4 15.195V16.8C14.4 17.4637 13.8638 18 13.2 18H10.8C10.1363 18 9.6 17.4637 9.6 16.8V15.195C8.1825 14.52 7.2 13.0762 7.2 11.4C7.2 9.07875 9.07875 7.2 11.4 7.2H12.6C14.9213 7.2 16.8 9.07875 16.8 11.4Z" fill="white"/>
</svg>
