<svg width="24" height="24" viewBox="0 0 24 24" fill="none" xmlns="http://www.w3.org/2000/svg">
<path d="M22.939 8.15859C23.0849 8.53242 22.9618 8.94922 22.6472 9.21562L21.2386 10.423C20.8875 10.7281 20.7188 11.175 20.7416 11.6219C20.7462 11.7465 20.7508 11.8711 20.7508 12C20.7508 12.1289 20.7462 12.2535 20.7416 12.3781C20.7188 12.8293 20.883 13.2762 21.2386 13.577L22.6472 14.7844C22.9618 15.0508 23.0849 15.4676 22.939 15.8414C22.7384 16.3527 22.4968 16.8426 22.2187 17.3152L22.0044 17.6633C21.7036 18.1359 21.3662 18.5828 20.9969 19.0039C20.728 19.3133 20.2812 19.4164 19.88 19.2961L18.0701 18.7547C17.6143 18.6172 17.1219 18.7074 16.7162 18.9523C16.4928 19.0855 16.2648 19.2145 16.0278 19.3262C15.6038 19.5324 15.2755 19.8934 15.1707 20.3316L14.765 22.0805C14.6738 22.4715 14.3547 22.7809 13.9352 22.8453C13.3061 22.9441 12.6588 22.9957 11.9977 22.9957C11.3367 22.9957 10.6893 22.9441 10.0602 22.8453C9.64078 22.7809 9.32166 22.4715 9.23048 22.0805L8.82475 20.3316C8.72445 19.8934 8.39165 19.5324 7.96768 19.3262C7.73062 19.2102 7.50267 19.0855 7.27929 18.9523C6.87811 18.7074 6.38119 18.6172 5.9253 18.7547L4.11999 19.3004C3.71881 19.4207 3.27204 19.3133 3.00307 19.0082C2.6338 18.5871 2.29644 18.1402 1.99556 17.6676L1.78129 17.3195C1.5032 16.8469 1.26158 16.357 1.06099 15.8457C0.915103 15.4719 1.03819 15.0551 1.35275 14.7887L2.76145 13.5812C3.11248 13.2762 3.28116 12.8293 3.25836 12.3824C3.2538 12.2578 3.24925 12.1332 3.24925 12.0043C3.24925 11.8754 3.2538 11.7508 3.25836 11.6262C3.28116 11.175 3.11704 10.7281 2.76145 10.4273L1.35275 9.21562C1.03819 8.94922 0.915103 8.53242 1.06099 8.15859C1.26158 7.64727 1.5032 7.15742 1.78129 6.68477L1.99556 6.33672C2.29644 5.86406 2.6338 5.41719 3.00307 4.99609C3.27204 4.68672 3.71881 4.58359 4.11999 4.70391L5.92986 5.24531C6.38575 5.38281 6.87811 5.29258 7.28385 5.04766C7.50723 4.91445 7.73518 4.78555 7.97224 4.67383C8.39621 4.46758 8.72445 4.10664 8.8293 3.66836L9.23504 1.91953C9.32622 1.52852 9.64534 1.21914 10.0648 1.15469C10.6939 1.05156 11.3412 1 12.0023 1C12.6633 1 13.3107 1.05156 13.9398 1.15039C14.3592 1.21484 14.6783 1.52422 14.7695 1.91523L15.1753 3.66406C15.2756 4.10234 15.6038 4.46328 16.0323 4.66953C16.2694 4.78555 16.4973 4.91016 16.7207 5.04336C17.1219 5.28828 17.6188 5.37422 18.0747 5.24102L19.8846 4.69961C20.2857 4.5793 20.7325 4.68672 21.0015 4.9918C21.3708 5.41289 21.7081 5.85977 22.009 6.33242L22.2233 6.68047C22.5014 7.15312 22.743 7.64297 22.9436 8.1543L22.939 8.15859ZM12.0023 15.4375C12.9696 15.4375 13.8972 15.0753 14.5812 14.4307C15.2651 13.786 15.6494 12.9117 15.6494 12C15.6494 11.0883 15.2651 10.214 14.5812 9.56932C13.8972 8.92466 12.9696 8.5625 12.0023 8.5625C11.035 8.5625 10.1074 8.92466 9.42339 9.56932C8.73943 10.214 8.35518 11.0883 8.35518 12C8.35518 12.9117 8.73943 13.786 9.42339 14.4307C10.1074 15.0753 11.035 15.4375 12.0023 15.4375Z" fill="white"/>
</svg>
