<svg width="41" height="47" viewBox="0 0 41 47" fill="none" xmlns="http://www.w3.org/2000/svg">
<path fill-rule="evenodd" clip-rule="evenodd" d="M31.1747 4.82694L41 0.037048V28.4829C41 32.3858 40.1673 35.7187 38.502 38.4815C36.8589 41.2442 34.472 43.3602 31.3412 44.8293C28.2104 46.2764 24.4246 47 19.9838 47C15.6761 47 12.0347 46.3093 9.0593 44.9279C6.08394 43.5246 3.83022 41.4854 2.29813 38.8104C0.766044 36.1134 0 32.8353 0 28.9762V0H9.82535V28.2197C9.82535 31.8815 10.7024 34.6662 12.4565 36.5738C14.2329 38.4595 16.8308 39.4024 20.2502 39.4024C23.7585 39.4024 26.4563 38.4157 28.3436 36.4423C30.231 34.4469 31.1747 31.5965 31.1747 27.8908V4.82694Z" fill="white"/>
<path fill-rule="evenodd" clip-rule="evenodd" d="M18.6378 10.9412L13.6671 13.3644V10.5576H13.6641V26.74C13.6641 28.9575 14.1287 30.8511 15.058 32.4207C15.9007 33.8633 17.0939 34.9955 18.6378 35.8172V10.9412Z" fill="white"/>
<path fill-rule="evenodd" clip-rule="evenodd" d="M22.1855 9.20889L27.1593 6.78418V10.5578V11.9613V26.7402C27.1593 28.9577 26.6946 30.8513 25.7653 32.4209C24.9227 33.8635 23.7294 34.9957 22.1855 35.8174V11.9613V10.5578V9.20889Z" fill="white"/>
</svg>
