<svg width="16" height="13" viewBox="0 0 16 13" fill="none" xmlns="http://www.w3.org/2000/svg">
<g clipPath="url(#clip0_146_6390)">
<path d="M0 12.2V4.2825C0 3.6275 0.3975 3.04 1.005 2.7975L7.7025 0.119999C7.8925 0.0424994 8.105 0.0424994 8.2975 0.119999L14.995 2.7975C15.6025 3.04 16 3.63 16 4.2825V12.2C16 12.5325 15.7325 12.8 15.4 12.8H14.2C13.8675 12.8 13.6 12.5325 13.6 12.2V5.6C13.6 5.1575 13.2425 4.8 12.8 4.8H3.2C2.7575 4.8 2.4 5.1575 2.4 5.6V12.2C2.4 12.5325 2.1325 12.8 1.8 12.8H0.6C0.2675 12.8 0 12.5325 0 12.2ZM12.2 12.8H3.8C3.4675 12.8 3.2 12.5325 3.2 12.2V10.8H12.8V12.2C12.8 12.5325 12.5325 12.8 12.2 12.8ZM3.2 10V8.4H12.8V10H3.2ZM3.2 7.6V5.6H12.8V7.6H3.2Z" fill="white"/>
</g>
<defs>
<clipPath id="clip0_146_6390">
<rect width="16" height="12.8" fill="white"/>
</clipPath>
</defs>
</svg>
