<svg width="24" height="24" viewBox="0 0 24 24" fill="none" xmlns="http://www.w3.org/2000/svg">
<path d="M12 17C11.8326 17 11.6702 16.9656 11.5128 16.8969C11.3555 16.8282 11.2249 16.7366 11.1211 16.6221L5.34529 10.3015C5.1151 10.0496 5 9.729 5 9.33969C5 8.95038 5.1151 8.62977 5.34529 8.37786C5.57549 8.12595 5.86846 8 6.22422 8C6.57997 8 6.87294 8.12595 7.10314 8.37786L12 13.7366L16.8969 8.37786C17.1271 8.12596 17.42 8 17.7758 8C18.1315 8 18.4245 8.12596 18.6547 8.37786C18.8849 8.62977 19 8.95038 19 9.33969C19 9.729 18.8849 10.0496 18.6547 10.3015L12.8789 16.6221C12.7534 16.7595 12.6173 16.8571 12.4708 16.9148C12.3244 16.9725 12.1674 17.0009 12 17Z" fill="#232323"/>
</svg>
