<svg width="855" height="98" viewBox="0 0 855 98" fill="none" xmlns="http://www.w3.org/2000/svg">
<path d="M129.873 48.9733C124.729 48.9733 121.2 51.1653 119.284 55.5494C118.291 57.8662 117.794 60.8246 117.794 64.4245V95.9684H102.682V37.7993H117.315V46.3001C119.266 43.3061 121.111 41.1497 122.849 39.8309C125.971 37.4785 129.926 36.3023 134.716 36.3023C140.711 36.3023 145.606 37.8884 149.402 41.0606C153.233 44.1972 155.149 49.4188 155.149 56.7256V95.9684H139.611V60.5216C139.611 57.4563 139.203 55.1039 138.387 53.4643C136.897 50.4703 134.059 48.9733 129.873 48.9733Z" fill="#0F6FDF"/>
<path d="M184.788 37.6924V95.9684H169.41V37.6924H184.788ZM184.788 16.6809V30.742H169.41V16.6809H184.788Z" fill="#0F6FDF"/>
<path d="M249.708 58.5969H234.17C233.886 56.4227 233.159 54.4623 231.988 52.7158C230.285 50.3634 227.642 49.1872 224.059 49.1872C218.951 49.1872 215.457 51.7356 213.576 56.8326C212.583 59.5414 212.086 63.1413 212.086 67.6323C212.086 71.9095 212.583 75.349 213.576 77.9509C215.386 82.7984 218.791 85.2221 223.793 85.2221C227.341 85.2221 229.859 84.2597 231.349 82.335C232.839 80.4103 233.744 77.9153 234.063 74.85H249.548C249.193 79.4836 247.526 83.8676 244.546 88.0022C239.792 94.6674 232.751 98 223.421 98C214.091 98 207.226 95.2199 202.827 89.6596C198.429 84.0993 196.229 76.8817 196.229 68.0066C196.229 57.991 198.659 50.203 203.519 44.6427C208.379 39.0824 215.084 36.3023 223.634 36.3023C230.906 36.3023 236.848 37.9419 241.46 41.221C246.107 44.5001 248.856 50.2921 249.708 58.5969Z" fill="#0F6FDF"/>
<path d="M262.372 44.0011C266.381 38.8686 273.263 36.3023 283.019 36.3023C289.369 36.3023 295.009 37.5676 299.94 40.0982C304.871 42.6289 307.337 47.405 307.337 54.4267V81.1588C307.337 83.0122 307.372 85.2577 307.443 87.8953C307.55 89.8913 307.851 91.2457 308.348 91.9586C308.844 92.6714 309.589 93.2595 310.583 93.7229V95.9684H294.087C293.626 94.7922 293.306 93.6872 293.129 92.6536C292.952 91.62 292.81 90.4437 292.703 89.125C290.61 91.4061 288.198 93.3486 285.466 94.9526C282.203 96.8416 278.513 97.7862 274.398 97.7862C269.148 97.7862 264.802 96.2892 261.361 93.2952C257.956 90.2655 256.253 85.9884 256.253 80.4638C256.253 73.2995 259.002 68.1135 264.501 64.9057C267.516 63.1592 271.95 61.9117 277.804 61.1632L282.965 60.5216C285.768 60.1652 287.772 59.7196 288.978 59.185C291.142 58.2583 292.224 56.8147 292.224 54.8544C292.224 52.4663 291.391 50.8267 289.723 49.9357C288.092 49.009 285.679 48.5456 282.486 48.5456C278.904 48.5456 276.367 49.4367 274.877 51.2188C273.813 52.5376 273.103 54.3197 272.749 56.5652H258.115C258.434 51.4683 259.853 47.2803 262.372 44.0011ZM273.653 84.9548C275.072 86.131 276.81 86.7191 278.868 86.7191C282.132 86.7191 285.129 85.7567 287.861 83.832C290.628 81.9073 292.065 78.3965 292.171 73.2995V67.6323C291.213 68.2383 290.238 68.7373 289.244 69.1293C288.287 69.4858 286.956 69.8244 285.254 70.1452L281.848 70.7867C278.655 71.357 276.367 72.052 274.984 72.8718C272.642 74.2619 271.472 76.4183 271.472 79.341C271.472 81.9429 272.199 83.8142 273.653 84.9548Z" fill="#0F6FDF"/>
<path d="M321.172 17.1621H336.337V95.9684H321.172V17.1621Z" fill="#0F6FDF"/>
<path d="M421.477 40.3656C426.018 43.2883 428.626 48.3139 429.3 55.4425H414.134C413.921 53.4821 413.371 51.9317 412.484 50.7911C410.817 48.7238 407.979 47.6902 403.97 47.6902C400.671 47.6902 398.312 48.207 396.893 49.2406C395.51 50.2743 394.818 51.4861 394.818 52.8762C394.818 54.6227 395.563 55.888 397.053 56.6722C398.543 57.492 403.811 58.8998 412.857 60.8958C418.888 62.3216 423.411 64.4779 426.426 67.365C429.406 70.2877 430.896 73.9411 430.896 78.3252C430.896 84.0993 428.75 88.822 424.457 92.4932C420.2 96.1288 413.602 97.9466 404.662 97.9466C395.545 97.9466 388.805 96.0219 384.442 92.1724C380.114 88.2874 377.95 83.3508 377.95 77.3628H393.328C393.647 80.0717 394.339 81.9964 395.403 83.137C397.283 85.1686 400.76 86.1844 405.833 86.1844C408.813 86.1844 411.172 85.7389 412.91 84.8478C414.684 83.9568 415.571 82.6201 415.571 80.838C415.571 79.1272 414.861 77.8262 413.442 76.9351C412.023 76.044 406.755 74.5114 397.638 72.3372C391.075 70.6976 386.446 68.6482 383.75 66.1888C381.054 63.7651 379.706 60.2721 379.706 55.7098C379.706 50.3277 381.799 45.712 385.985 41.8626C390.206 37.9775 396.131 36.035 403.758 36.035C410.995 36.035 416.901 37.4785 421.477 40.3656Z" fill="#0F6FDF"/>
<path d="M490.547 45.0704C495.443 51.2366 497.89 58.5256 497.89 66.9373C497.89 75.4916 495.443 82.8162 490.547 88.9111C485.652 94.9704 478.22 98 468.251 98C458.283 98 450.851 94.9704 445.955 88.9111C441.06 82.8162 438.612 75.4916 438.612 66.9373C438.612 58.5256 441.06 51.2366 445.955 45.0704C450.851 38.9042 458.283 35.8211 468.251 35.8211C478.22 35.8211 485.652 38.9042 490.547 45.0704ZM468.198 48.706C463.764 48.706 460.34 50.2921 457.928 53.4643C455.551 56.6009 454.363 61.0919 454.363 66.9373C454.363 72.7827 455.551 77.2915 457.928 80.4638C460.34 83.636 463.764 85.2221 468.198 85.2221C472.632 85.2221 476.038 83.636 478.415 80.4638C480.792 77.2915 481.98 72.7827 481.98 66.9373C481.98 61.0919 480.792 56.6009 478.415 53.4643C476.038 50.2921 472.632 48.706 468.198 48.706Z" fill="#0F6FDF"/>
<path d="M509.118 17.1621H524.284V95.9684H509.118V17.1621Z" fill="#0F6FDF"/>
<path d="M576.326 87.7349C576.184 87.9131 575.829 88.4478 575.261 89.3388C574.694 90.2299 574.02 91.014 573.239 91.6912C570.862 93.8298 568.557 95.2912 566.322 96.0753C564.122 96.8595 561.533 97.2515 558.553 97.2515C549.968 97.2515 544.185 94.1506 541.205 87.9488C539.538 84.527 538.704 79.4836 538.704 72.8184V37.6924H554.242V72.8184C554.242 76.1332 554.633 78.6282 555.413 80.3034C556.797 83.2617 559.51 84.7409 563.555 84.7409C568.734 84.7409 572.281 82.638 574.197 78.4321C575.19 76.151 575.687 73.1392 575.687 69.3967V37.6924H591.065V95.9684H576.326V87.7349Z" fill="#0F6FDF"/>
<path d="M632.305 85.1151V96.503L625.121 96.7704C617.955 97.0199 613.06 95.7724 610.435 93.0279C608.732 91.2814 607.881 88.5903 607.881 84.9548V49.0802H599.792V38.227H607.881V21.9739H622.886V38.227H632.305V49.0802H622.886V79.8756C622.886 82.2637 623.188 83.7607 623.791 84.3666C624.394 84.9369 626.239 85.2221 629.325 85.2221C629.786 85.2221 630.265 85.2221 630.762 85.2221C631.294 85.1864 631.808 85.1508 632.305 85.1151Z" fill="#0F6FDF"/>
<path d="M657.634 37.6924V95.9684H642.256V37.6924H657.634ZM657.634 16.6809V30.742H642.256V16.6809H657.634Z" fill="#0F6FDF"/>
<path d="M720.744 45.0704C725.64 51.2366 728.087 58.5256 728.087 66.9373C728.087 75.4916 725.64 82.8162 720.744 88.9111C715.849 94.9704 708.417 98 698.448 98C688.48 98 681.048 94.9704 676.152 88.9111C671.257 82.8162 668.809 75.4916 668.809 66.9373C668.809 58.5256 671.257 51.2366 676.152 45.0704C681.048 38.9042 688.48 35.8211 698.448 35.8211C708.417 35.8211 715.849 38.9042 720.744 45.0704ZM698.395 48.706C693.961 48.706 690.537 50.2921 688.125 53.4643C685.748 56.6009 684.56 61.0919 684.56 66.9373C684.56 72.7827 685.748 77.2915 688.125 80.4638C690.537 83.636 693.961 85.2221 698.395 85.2221C702.829 85.2221 706.235 83.636 708.612 80.4638C710.989 77.2915 712.177 72.7827 712.177 66.9373C712.177 61.0919 710.989 56.6009 708.612 53.4643C706.235 50.2921 702.829 48.706 698.395 48.706Z" fill="#0F6FDF"/>
<path d="M766.294 48.9733C761.15 48.9733 757.62 51.1653 755.705 55.5494C754.711 57.8662 754.215 60.8246 754.215 64.4245V95.9684H739.102V37.7993H753.736V46.3001C755.687 43.3061 757.532 41.1497 759.27 39.8309C762.392 37.4785 766.347 36.3023 771.136 36.3023C777.132 36.3023 782.027 37.8884 785.823 41.0606C789.654 44.1972 791.57 49.4188 791.57 56.7256V95.9684H776.032V60.5216C776.032 57.4563 775.624 55.1039 774.808 53.4643C773.318 50.4703 770.48 48.9733 766.294 48.9733Z" fill="#0F6FDF"/>
<path d="M845.581 40.3656C850.121 43.2883 852.729 48.3139 853.403 55.4425H838.237C838.024 53.4821 837.474 51.9317 836.588 50.7911C834.92 48.7238 832.082 47.6902 828.074 47.6902C824.774 47.6902 822.415 48.207 820.996 49.2406C819.613 50.2743 818.921 51.4861 818.921 52.8762C818.921 54.6227 819.666 55.888 821.156 56.6722C822.646 57.492 827.914 58.8998 836.96 60.8958C842.991 62.3216 847.514 64.4779 850.529 67.365C853.509 70.2877 854.999 73.9411 854.999 78.3252C854.999 84.0993 852.853 88.822 848.56 92.4932C844.303 96.1288 837.705 97.9466 828.765 97.9466C819.648 97.9466 812.908 96.0219 808.545 92.1724C804.217 88.2874 802.053 83.3508 802.053 77.3628H817.431C817.75 80.0717 818.442 81.9964 819.506 83.137C821.387 85.1686 824.863 86.1844 829.936 86.1844C832.916 86.1844 835.275 85.7389 837.013 84.8478C838.787 83.9568 839.674 82.6201 839.674 80.838C839.674 79.1272 838.964 77.8262 837.545 76.9351C836.126 76.044 830.858 74.5114 821.741 72.3372C815.178 70.6976 810.549 68.6482 807.853 66.1888C805.157 63.7651 803.809 60.2721 803.809 55.7098C803.809 50.3277 805.902 45.712 810.088 41.8626C814.309 37.9775 820.234 36.035 827.861 36.035C835.098 36.035 841.004 37.4785 845.581 40.3656Z" fill="#0F6FDF"/>
<path fill-rule="evenodd" clip-rule="evenodd" d="M65.3294 10.0649L85.9193 0.0774899V59.3898C85.9193 67.5279 84.1744 74.4772 80.6845 80.2379C77.2413 85.9986 72.2392 90.4105 65.6783 93.4737C59.1175 96.4912 51.184 98 41.8778 98C32.8508 98 25.2197 96.5598 18.9846 93.6795C12.7495 90.7534 8.02658 86.5015 4.81595 80.9237C1.60532 75.3002 0 68.4651 0 60.4185V0H20.5899V58.8411C20.5899 66.4763 22.4279 72.2827 26.1038 76.2603C29.8263 80.1922 35.2704 82.1581 42.4362 82.1581C49.788 82.1581 55.4415 80.1007 59.3967 75.986C63.3518 71.8255 65.3294 65.882 65.3294 58.1553V10.0649Z" fill="#1EB53A"/>
<path fill-rule="evenodd" clip-rule="evenodd" d="M39.0557 22.8137L28.6399 27.866V22.0137H28.6328V55.7557C28.6328 60.3794 29.6065 64.3276 31.5539 67.6005C33.3198 70.6085 35.8204 72.9692 39.0557 74.6827V22.8137Z" fill="#1EB53A"/>
<path fill-rule="evenodd" clip-rule="evenodd" d="M46.4922 19.2028L56.9151 14.147V22.0143V24.9409V55.7564C56.9151 60.38 55.9414 64.3283 53.994 67.6012C52.2281 70.6091 49.7275 72.9698 46.4922 74.6833V24.9409V22.0143V19.2028Z" fill="#1EB53A"/>
</svg>
